name C:\Users\u0101727\Documents\MyRepositories\upper-imu-dc\Results\main_tracking\Case_45\FLX01_linearAccelerations_groundFrame.mot
datacolumns 4
datarows 105
range 0.50600000 1.13000000
endheader 
time	radius_imu_x	radius_imu_y	radius_imu_z	
          0.50600000	         -1.54371900	          9.78667920	         -2.87805312	
          0.51200000	         -1.48672497	          9.79447761	         -2.94190060	
          0.51800000	         -1.48371222	          9.78494195	         -2.98381162	
          0.52400000	         -1.48886665	          9.78498483	         -3.01034383	
          0.53000000	         -1.48963414	          9.78809378	         -3.02258108	
          0.53600000	         -1.48285065	          9.79518608	         -3.02332437	
          0.54200000	         -1.46850949	          9.80544228	         -3.01379281	
          0.54800000	         -1.44754344	          9.81847148	         -2.99468886	
          0.55400000	         -1.42116056	          9.83409492	         -2.96635463	
          0.56000000	         -1.39066582	          9.85208301	         -2.92891640	
          0.56600000	         -1.35738904	          9.87230068	         -2.88244943	
          0.57200000	         -1.32261445	          9.89466259	         -2.82705061	
          0.57800000	         -1.28762180	          9.91906656	         -2.76284563	
          0.58400000	         -1.25363864	          9.94545358	         -2.69006343	
          0.59000000	         -1.22177806	          9.97375923	         -2.60903784	
          0.59600000	         -1.19316464	         10.00392075	         -2.52019395	
          0.60200000	         -1.16866107	         10.03588484	         -2.42414327	
          0.60800000	         -1.14905251	         10.06959862	         -2.32154909	
          0.61400000	         -1.13491942	         10.10501040	         -2.21320354	
          0.62000000	         -1.12665140	         10.14206454	         -2.10000181	
          0.62600000	         -1.12453580	         10.18068886	         -1.98291481	
          0.63200000	         -1.12867651	         10.22079250	         -1.86302777	
          0.63800000	         -1.13913645	         10.26224801	         -1.74148876	
          0.64400000	         -1.15591295	         10.30489520	         -1.61950580	
          0.65000000	         -1.17901066	         10.34853056	         -1.49829924	
          0.65600000	         -1.20833354	         10.39292776	         -1.37911689	
          0.66200000	         -1.24385711	         10.43782443	         -1.26314159	
          0.66800000	         -1.28546043	         10.48294201	         -1.15154149	
          0.67400000	         -1.33301655	         10.52798803	         -1.04541524	
          0.68000000	         -1.38638598	         10.57265379	         -0.94578252	
          0.68600000	         -1.44531940	         10.61663668	         -0.85358951	
          0.69200000	         -1.50957480	         10.65965253	         -0.76961466	
          0.69800000	         -1.57885742	         10.70140960	         -0.69457781	
          0.70400000	         -1.65284655	         10.74164186	         -0.62903627	
          0.71000000	         -1.73125271	         10.78009718	         -0.57339458	
          0.71600000	         -1.81366747	         10.81654922	         -0.52793520	
          0.72200000	         -1.89975857	         10.85083396	         -0.49264577	
          0.72800000	         -1.98917166	         10.88278639	         -0.46743913	
          0.73400000	         -2.08158525	         10.91228709	         -0.45199751	
          0.74000000	         -2.17672883	         10.93924679	         -0.44583500	
          0.74600000	         -2.27430032	         10.96360276	         -0.44833338	
          0.75200000	         -2.37403644	         10.98536557	         -0.45861582	
          0.75800000	         -2.47571307	         11.00453810	         -0.47576376	
          0.76400000	         -2.57912043	         11.02119341	         -0.49868414	
          0.77000000	         -2.68403463	         11.03545488	         -0.52618620	
          0.77600000	         -2.79021769	         11.04749615	         -0.55700083	
          0.78200000	         -2.89733101	         11.05761941	         -0.58974054	
          0.78800000	         -3.00509758	         11.06611927	         -0.62309371	
          0.79400000	         -3.11327313	         11.07336412	         -0.65575920	
          0.80000000	         -3.22160984	         11.07974801	         -0.68656657	
          0.80600000	         -3.32993506	         11.08565281	         -0.71449960	
          0.81200000	         -3.43808777	         11.09149103	         -0.73874658	
          0.81800000	         -3.54599133	         11.09759625	         -0.75877019	
          0.82400000	         -3.65364959	         11.10425240	         -0.77429873	
          0.83000000	         -3.76110972	         11.11166371	         -0.78535115	
          0.83600000	         -3.86847600	         11.11995150	         -0.79218207	
          0.84200000	         -3.97582799	         11.12914302	         -0.79532091	
          0.84800000	         -4.08324016	         11.13920728	         -0.79542942	
          0.85400000	         -4.19073283	         11.15004770	         -0.79330141	
          0.86000000	         -4.29825998	         11.16152049	         -0.78979004	
          0.86600000	         -4.40575033	         11.17346324	         -0.78573102	
          0.87200000	         -4.51302494	         11.18568688	         -0.78192280	
          0.87800000	         -4.61988699	         11.19801358	         -0.77905552	
          0.88400000	         -4.72607103	         11.21029137	         -0.77768779	
          0.89000000	         -4.83125837	         11.22240513	         -0.77822297	
          0.89600000	         -4.93509833	         11.23430710	         -0.78090001	
          0.90200000	         -5.03715299	         11.24603050	         -0.78576295	
          0.90800000	         -5.13698471	         11.25768274	         -0.79271267	
          0.91400000	         -5.23411319	         11.26948010	         -0.80148380	
          0.92000000	         -5.32802743	         11.28174631	         -0.81167663	
          0.92600000	         -5.41821635	         11.29490857	         -0.82279389	
          0.93200000	         -5.50418508	         11.30948614	         -0.83425725	
          0.93800000	         -5.58557997	         11.32598801	         -0.84553604	
          0.94400000	         -5.66223836	         11.34485828	         -0.85620391	
          0.95000000	         -5.73423162	         11.36638571	         -0.86604163	
          0.95600000	         -5.80190459	         11.39062616	         -0.87511473	
          0.96200000	         -5.86594497	         11.41728696	         -0.88383456	
          0.96800000	         -5.92718356	         11.44581140	         -0.89292925	
          0.97400000	         -5.98660150	         11.47530688	         -0.90347431	
          0.98000000	         -6.04524318	         11.50460542	         -0.91678316	
          0.98600000	         -6.10403862	         11.53237128	         -0.93434675	
          0.99200000	         -6.16391376	         11.55708490	         -0.95766163	
          0.99800000	         -6.22537569	         11.57737764	         -0.98808089	
          1.00400000	         -6.28856745	         11.59206873	         -1.02670667	
          1.01000000	         -6.35327194	         11.60026777	         -1.07425933	
          1.01600000	         -6.41890796	         11.60143680	         -1.13109518	
          1.02200000	         -6.48462985	         11.59539439	         -1.19711208	
          1.02800000	         -6.54946499	         11.58222781	         -1.27191413	
          1.03400000	         -6.61238823	         11.56224875	         -1.35483103	
          1.04000000	         -6.67239181	         11.53591975	         -1.44503023	
          1.04600000	         -6.72856482	         11.50378058	         -1.54159278	
          1.05200000	         -6.78001255	         11.46646028	         -1.64357872	
          1.05800000	         -6.82600391	         11.42454386	         -1.75010727	
          1.06400000	         -6.86591511	         11.37857205	         -1.86038803	
          1.07000000	         -6.89921059	         11.32902048	         -1.97376616	
          1.07600000	         -6.92547826	         11.27627689	         -2.08969578	
          1.08200000	         -6.94430405	         11.22068966	         -2.20778245	
          1.08800000	         -6.95537232	         11.16252748	         -2.32771404	
          1.09400000	         -6.95838764	         11.10203292	         -2.44924886	
          1.10000000	         -6.95304776	         11.03946032	         -2.57217303	
          1.10600000	         -6.93907574	         10.97511663	         -2.69624369	
          1.11200000	         -6.91611027	         10.90942072	         -2.82117475	
          1.11800000	         -6.88383681	         10.84287495	         -2.94660936	
          1.12400000	         -6.84194285	         10.77608100	         -3.07212651	
          1.13000000	         -6.79014032	         10.70972514	         -3.19725253	
